{"title":"18+ Seclusion 2015 UNCENSORED Movies BRRip XviD New +Sample ☻rDX","uid":15559566,"size":739982355,"categoryP":"video","categoryS":"movies","magnet":"?xt=urn:btih:d8995e6d2af267f5a90c4d9d2099f4731e57c764&amp;dn=18%2B+Seclusion+2015+UNCENSORED+Movies+BRRip+XviD+New+%2BSample+%E2%98%BBrDX&amp;tr=udp%3A%2F%2Ftracker.leechers-paradise.org%3A6969&amp;tr=udp%3A%2F%2Fzer0day.ch%3A1337&amp;tr=udp%3A%2F%2Fopen.demonii.com%3A1337&amp;tr=udp%3A%2F%2Ftracker.coppersurfer.tk%3A6969&amp;tr=udp%3A%2F%2Fexodus.desync.com%3A6969","seeders":1,"leechers":2,"uploader":"basicssom","files":2,"time":1471111413,"description":"----------------------------------------------------------------\r\n18+ Seclusion 2015 UNCENSORED English Movies BRRip XviD AAC New Source with Sample ☻rDX☻\r\n\r\nSCREEN SHOTS &amp; POSTER:\r\n  \nhttp://postimage.co.nr/2016/8/electronic/index.htm  \nhttp://postimage.co.nr/2016/8/electronic/1.html  \nhttp://postimage.co.nr/2016/8/electronic/2.html  \nhttp://postimage.co.nr/2016/8/electronic/3.html  \nhttp://postimage.co.nr/2016/8/electronic/4.html  \nhttp://postimage.co.nr/2016/8/electronic/5.html  \nhttp://postimage.co.nr/2016/8/electronic/6.html  \nhttp://postimage.co.nr/2016/8/electronic/7.html  \nhttp://postimage.co.nr/2016/8/electronic/8.html  \nhttp://postimage.co.nr/2016/8/electronic/9.html  \nhttp://postimage.co.nr/2016/8/electronic/10.html\r\n\r\nFormat                                   : Matroska\r\nFormat version                           : Version 4 / Version 2\r\nFile size                                : 694 MiB\r\nDuration                                 : 1 h 32 min\r\nOverall bit rate                         : 1 055 kb/s\r\nMovie name                               : Seclusion 2015 English Movies BRRip XviD AAC New Source ☻rDX☻\r\n\r\nVideo\r\nID                                       : 1\r\nFormat                                   : MPEG-4 Visual\r\nFormat profile                           : Advanced   \r\nFormat settings, BVOP                    : 2\r\nFormat settings, QPel                    : No\r\nFormat settings, GMC                     : No warppoints\r\nFormat settings, Matrix                  : Default (H.263)\r\nMuxing mode                              : Packed bitstream\r\nCodec ID                                 : V_MS/VFW/FOURCC / XVID\r\nCodec ID/Hint                            : XviD\r\nDuration                                 : 1 h 32 min\r\nBit rate                                 : 906 kb/s\r\nWidth                                    : 640 pixels\r\nHeight                                   : 344 pixels\r\nDisplay aspect ratio                     : 1.85:1\r\nFrame rate mode                          : Constant\r\nFrame rate                               : 23.976 (24000/1001) FPS\r\nColor space                              : YUV\r\nChroma subsampling                       : 4:2:0\r\nBit depth                                : 8 bits\r\nScan type                                : Progressive\r\nCompression mode                         : Lossy\r\nBits/(Pixel*Frame)                       : 0.172\r\nStream size                              : 596 MiB (86%)\r\nTitle                                    : ☻rDX☻\r\nWriting library                          : XviD 64\r\nDefault                                  : Yes\r\nForced                                   : No\r\n\r\nAudio\r\nID                                       : 2\r\nFormat                                   : MPEG Audio\r\nFormat version                           : Version 1\r\nFormat profile                           : Layer 3\r\nMode                                     : Joint stereo\r\nMode extension                           : MS Stereo\r\nCodec ID                                 : A_MPEG/L3\r\nCodec ID/Hint                            : MP3\r\nDuration                                 : 1 h 32 min\r\nBit rate mode                            : Constant\r\nBit rate                                 : 128 kb/s\r\nChannel(s)                               : 2 channels\r\nSampling rate                            : 48.0 kHz\r\nCompression mode                         : Lossy\r\nStream size                              : 84.2 MiB (12%)\r\nTitle                                    : ☻rDX☻\r\nDefault                                  : Yes\r\nForced                                   : No\r\n\r\nIMDB \nhttp://www.imdb.com/title/tt4096608/","torrent":{"xt":"urn:btih:d8995e6d2af267f5a90c4d9d2099f4731e57c764","amp;dn":"18%2B+Seclusion+2015+UNCENSORED+Movies+BRRip+XviD+New+%2BSample+%E2%98%BBrDX","amp;tr":["udp%3A%2F%2Ftracker.leechers-paradise.org%3A6969","udp%3A%2F%2Fzer0day.ch%3A1337","udp%3A%2F%2Fopen.demonii.com%3A1337","udp%3A%2F%2Ftracker.coppersurfer.tk%3A6969","udp%3A%2F%2Fexodus.desync.com%3A6969"],"infoHash":"d8995e6d2af267f5a90c4d9d2099f4731e57c764","infoHashBuffer":{"type":"Buffer","data":[216,153,94,109,42,242,103,245,169,12,77,157,32,153,244,115,30,87,199,100]},"announce":[],"urlList":[]}}